# xmcd
#
# Track frame offsets:
#	150
#	17405
#	39697
#	57440
#	73612
#	86860
#	127697
#	138777
#	154740
#	186270
#	199085
#	219635
#	230600
#
# Disc length: 3282 seconds
#
# Revision: 1
# Processed by: cddbd v1.5.2PL0 Copyright (c) Steve Scherf et al.
# Submitted via: EZCDAudioConverter 5.1.1.1
#
DISCID=b40cd00d
DTITLE=Fleetwood Mac - Then Play On (SHM)
DYEAR=2013
DGENRE=Pop/Rock
TTITLE0=Coming Your Way
TTITLE1=Closing My Eyes
TTITLE2=Show-Biz Blues
TTITLE3=My Dream
TTITLE4=Underway
TTITLE5=Oh Well
TTITLE6=Although the Sun Is Shining
TTITLE7=Rattlesnake Shake
TTITLE8=Searching For Madge
TTITLE9=Fighting For Madge
TTITLE10=When You Say
TTITLE11=Like Crying
TTITLE12=Before the Beginning
EXTD=
EXTT0=
EXTT1=
EXTT2=
EXTT3=
EXTT4=
EXTT5=
EXTT6=
EXTT7=
EXTT8=
EXTT9=
EXTT10=
EXTT11=
EXTT12=
PLAYORDER=
